<mxfile host="65bd71144e">
    <diagram id="MZZh417o46dk4xW71PtA" name="Page-1">
        <mxGraphModel dx="3253" dy="1520" grid="1" gridSize="10" guides="1" tooltips="1" connect="1" arrows="1" fold="1" page="0" pageScale="1" pageWidth="1169" pageHeight="827" background="none" math="0" shadow="0">
            <root>
                <mxCell id="0"/>
                <mxCell id="1" parent="0"/>
                <mxCell id="4" value="" style="edgeStyle=orthogonalEdgeStyle;rounded=0;orthogonalLoop=1;jettySize=auto;html=1;" parent="1" source="2" target="3" edge="1">
                    <mxGeometry relative="1" as="geometry"/>
                </mxCell>
                <mxCell id="7" value="" style="edgeStyle=orthogonalEdgeStyle;rounded=0;orthogonalLoop=1;jettySize=auto;html=1;" parent="1" source="2" target="5" edge="1">
                    <mxGeometry relative="1" as="geometry"/>
                </mxCell>
                <mxCell id="9" value="" style="edgeStyle=orthogonalEdgeStyle;rounded=0;orthogonalLoop=1;jettySize=auto;html=1;" parent="1" target="11" edge="1">
                    <mxGeometry relative="1" as="geometry">
                        <mxPoint x="-100" y="80" as="sourcePoint"/>
                        <mxPoint x="580" y="290" as="targetPoint"/>
                    </mxGeometry>
                </mxCell>
                <mxCell id="118" style="edgeStyle=orthogonalEdgeStyle;rounded=0;orthogonalLoop=1;jettySize=auto;html=1;fontSize=20;" parent="1" source="2" target="21" edge="1">
                    <mxGeometry relative="1" as="geometry"/>
                </mxCell>
                <mxCell id="2" value="&lt;font style=&quot;font-size: 40px&quot;&gt;技能树&lt;/font&gt;" style="ellipse;whiteSpace=wrap;html=1;aspect=fixed;" parent="1" vertex="1">
                    <mxGeometry x="-200" width="200" height="200" as="geometry"/>
                </mxCell>
                <mxCell id="47" style="edgeStyle=orthogonalEdgeStyle;rounded=0;orthogonalLoop=1;jettySize=auto;html=1;fontSize=20;" parent="1" source="3" target="46" edge="1">
                    <mxGeometry relative="1" as="geometry"/>
                </mxCell>
                <mxCell id="108" style="edgeStyle=orthogonalEdgeStyle;rounded=0;orthogonalLoop=1;jettySize=auto;html=1;fontSize=20;" parent="1" source="3" target="107" edge="1">
                    <mxGeometry relative="1" as="geometry"/>
                </mxCell>
                <mxCell id="112" style="edgeStyle=orthogonalEdgeStyle;rounded=0;orthogonalLoop=1;jettySize=auto;html=1;entryX=0;entryY=0.5;entryDx=0;entryDy=0;fontSize=20;" parent="1" source="3" target="100" edge="1">
                    <mxGeometry relative="1" as="geometry"/>
                </mxCell>
                <mxCell id="113" style="edgeStyle=orthogonalEdgeStyle;rounded=0;orthogonalLoop=1;jettySize=auto;html=1;entryX=0;entryY=0.5;entryDx=0;entryDy=0;fontSize=20;" parent="1" source="3" target="110" edge="1">
                    <mxGeometry relative="1" as="geometry"/>
                </mxCell>
                <mxCell id="159" value="自然科学" style="edgeLabel;html=1;align=center;verticalAlign=middle;resizable=0;points=[];fontSize=20;" parent="113" vertex="1" connectable="0">
                    <mxGeometry x="-0.8136" y="-3" relative="1" as="geometry">
                        <mxPoint x="58" y="-3" as="offset"/>
                    </mxGeometry>
                </mxCell>
                <mxCell id="3" value="&lt;font style=&quot;font-size: 30px&quot;&gt;通识&lt;/font&gt;" style="ellipse;whiteSpace=wrap;html=1;aspect=fixed;" parent="1" vertex="1">
                    <mxGeometry x="320" y="40" width="120" height="120" as="geometry"/>
                </mxCell>
                <mxCell id="25" style="edgeStyle=orthogonalEdgeStyle;rounded=0;orthogonalLoop=1;jettySize=auto;html=1;fontSize=20;" parent="1" source="5" target="57" edge="1">
                    <mxGeometry relative="1" as="geometry">
                        <mxPoint y="680" as="targetPoint"/>
                    </mxGeometry>
                </mxCell>
                <mxCell id="26" style="edgeStyle=orthogonalEdgeStyle;rounded=0;orthogonalLoop=1;jettySize=auto;html=1;fontSize=20;" parent="1" source="5" target="23" edge="1">
                    <mxGeometry relative="1" as="geometry"/>
                </mxCell>
                <mxCell id="76" style="edgeStyle=orthogonalEdgeStyle;rounded=0;orthogonalLoop=1;jettySize=auto;html=1;fontSize=20;" parent="1" source="5" target="77" edge="1">
                    <mxGeometry relative="1" as="geometry">
                        <mxPoint x="270" y="740" as="targetPoint"/>
                    </mxGeometry>
                </mxCell>
                <mxCell id="104" style="edgeStyle=orthogonalEdgeStyle;rounded=0;orthogonalLoop=1;jettySize=auto;html=1;fontSize=20;" parent="1" source="5" target="103" edge="1">
                    <mxGeometry relative="1" as="geometry"/>
                </mxCell>
                <mxCell id="120" style="edgeStyle=orthogonalEdgeStyle;rounded=0;orthogonalLoop=1;jettySize=auto;html=1;fontSize=20;" parent="1" source="5" target="119" edge="1">
                    <mxGeometry relative="1" as="geometry"/>
                </mxCell>
                <mxCell id="137" style="edgeStyle=orthogonalEdgeStyle;rounded=0;orthogonalLoop=1;jettySize=auto;html=1;entryX=0.5;entryY=0;entryDx=0;entryDy=0;fontSize=20;" parent="1" source="5" target="136" edge="1">
                    <mxGeometry relative="1" as="geometry"/>
                </mxCell>
                <mxCell id="206" style="edgeStyle=orthogonalEdgeStyle;rounded=0;orthogonalLoop=1;jettySize=auto;html=1;fontSize=20;" parent="1" source="5" target="205" edge="1">
                    <mxGeometry relative="1" as="geometry"/>
                </mxCell>
                <mxCell id="5" value="&lt;font style=&quot;font-size: 30px&quot;&gt;专业&lt;/font&gt;" style="ellipse;whiteSpace=wrap;html=1;aspect=fixed;" parent="1" vertex="1">
                    <mxGeometry x="-160" y="520" width="120" height="120" as="geometry"/>
                </mxCell>
                <mxCell id="149" style="edgeStyle=orthogonalEdgeStyle;rounded=0;orthogonalLoop=1;jettySize=auto;html=1;entryX=0.5;entryY=1;entryDx=0;entryDy=0;fontSize=20;" parent="1" source="11" target="148" edge="1">
                    <mxGeometry relative="1" as="geometry"/>
                </mxCell>
                <mxCell id="216" style="edgeStyle=orthogonalEdgeStyle;rounded=0;orthogonalLoop=1;jettySize=auto;html=1;fontSize=20;" parent="1" source="11" target="215" edge="1">
                    <mxGeometry relative="1" as="geometry"/>
                </mxCell>
                <mxCell id="11" value="&lt;font style=&quot;font-size: 30px&quot;&gt;技能&lt;/font&gt;" style="ellipse;whiteSpace=wrap;html=1;aspect=fixed;" parent="1" vertex="1">
                    <mxGeometry x="-160" y="-160" width="120" height="120" as="geometry"/>
                </mxCell>
                <mxCell id="30" style="edgeStyle=orthogonalEdgeStyle;rounded=0;orthogonalLoop=1;jettySize=auto;html=1;fontSize=20;" parent="1" source="21" target="29" edge="1">
                    <mxGeometry relative="1" as="geometry"/>
                </mxCell>
                <mxCell id="32" style="edgeStyle=orthogonalEdgeStyle;rounded=0;orthogonalLoop=1;jettySize=auto;html=1;fontSize=20;" parent="1" source="21" target="31" edge="1">
                    <mxGeometry relative="1" as="geometry"/>
                </mxCell>
                <mxCell id="39" value="" style="edgeStyle=orthogonalEdgeStyle;rounded=0;orthogonalLoop=1;jettySize=auto;html=1;fontSize=20;" parent="1" source="21" target="38" edge="1">
                    <mxGeometry relative="1" as="geometry"/>
                </mxCell>
                <mxCell id="323" style="edgeStyle=orthogonalEdgeStyle;rounded=0;orthogonalLoop=1;jettySize=auto;html=1;" parent="1" source="21" target="41" edge="1">
                    <mxGeometry relative="1" as="geometry"/>
                </mxCell>
                <mxCell id="326" style="edgeStyle=orthogonalEdgeStyle;rounded=0;orthogonalLoop=1;jettySize=auto;html=1;" parent="1" source="21" target="325" edge="1">
                    <mxGeometry relative="1" as="geometry"/>
                </mxCell>
                <mxCell id="21" value="&lt;font style=&quot;font-size: 30px&quot;&gt;数学&lt;/font&gt;" style="ellipse;whiteSpace=wrap;html=1;aspect=fixed;fontSize=20;" parent="1" vertex="1">
                    <mxGeometry x="-560" y="40" width="120" height="120" as="geometry"/>
                </mxCell>
                <mxCell id="82" style="edgeStyle=orthogonalEdgeStyle;rounded=0;orthogonalLoop=1;jettySize=auto;html=1;fontSize=20;" parent="1" source="23" target="81" edge="1">
                    <mxGeometry relative="1" as="geometry"/>
                </mxCell>
                <mxCell id="83" style="edgeStyle=orthogonalEdgeStyle;rounded=0;orthogonalLoop=1;jettySize=auto;html=1;fontSize=20;" parent="1" source="23" target="84" edge="1">
                    <mxGeometry relative="1" as="geometry">
                        <mxPoint x="1060" y="850" as="targetPoint"/>
                    </mxGeometry>
                </mxCell>
                <mxCell id="222" style="edgeStyle=orthogonalEdgeStyle;rounded=0;orthogonalLoop=1;jettySize=auto;html=1;entryX=0.5;entryY=0;entryDx=0;entryDy=0;fontSize=20;" parent="1" source="23" target="213" edge="1">
                    <mxGeometry relative="1" as="geometry"/>
                </mxCell>
                <mxCell id="266" style="edgeStyle=orthogonalEdgeStyle;rounded=0;orthogonalLoop=1;jettySize=auto;html=1;" parent="1" source="23" target="265" edge="1">
                    <mxGeometry relative="1" as="geometry"/>
                </mxCell>
                <mxCell id="23" value="硬件" style="ellipse;whiteSpace=wrap;html=1;aspect=fixed;fontSize=20;" parent="1" vertex="1">
                    <mxGeometry x="920" y="680" width="80" height="80" as="geometry"/>
                </mxCell>
                <mxCell id="310" style="edgeStyle=orthogonalEdgeStyle;rounded=0;orthogonalLoop=1;jettySize=auto;html=1;" parent="1" source="29" target="35" edge="1">
                    <mxGeometry relative="1" as="geometry">
                        <mxPoint x="-659.9411764705878" y="-50" as="targetPoint"/>
                    </mxGeometry>
                </mxCell>
                <mxCell id="29" value="微积分" style="rounded=1;whiteSpace=wrap;html=1;fontSize=20;strokeColor=#001DBC;fillColor=#0050ef;fontColor=#ffffff;" parent="1" vertex="1">
                    <mxGeometry x="-720" y="-20" width="120" height="60" as="geometry"/>
                </mxCell>
                <mxCell id="34" value="" style="edgeStyle=orthogonalEdgeStyle;rounded=0;orthogonalLoop=1;jettySize=auto;html=1;fontSize=20;" parent="1" source="31" target="33" edge="1">
                    <mxGeometry relative="1" as="geometry"/>
                </mxCell>
                <mxCell id="135" style="edgeStyle=orthogonalEdgeStyle;rounded=0;orthogonalLoop=1;jettySize=auto;html=1;entryX=0;entryY=0.5;entryDx=0;entryDy=0;fontSize=20;dashed=1;curved=1;exitX=0.5;exitY=1;exitDx=0;exitDy=0;" parent="1" source="31" target="132" edge="1">
                    <mxGeometry relative="1" as="geometry"/>
                </mxCell>
                <mxCell id="31" value="线性代数" style="rounded=1;whiteSpace=wrap;html=1;fontSize=20;strokeColor=#007FFF;" parent="1" vertex="1">
                    <mxGeometry x="-720" y="220" width="120" height="60" as="geometry"/>
                </mxCell>
                <mxCell id="268" style="edgeStyle=orthogonalEdgeStyle;rounded=0;orthogonalLoop=1;jettySize=auto;html=1;" parent="1" source="33" target="267" edge="1">
                    <mxGeometry relative="1" as="geometry"/>
                </mxCell>
                <mxCell id="33" value="矩阵分析" style="whiteSpace=wrap;html=1;rounded=1;fontSize=20;strokeColor=#808080;" parent="1" vertex="1">
                    <mxGeometry x="-920" y="220" width="120" height="60" as="geometry"/>
                </mxCell>
                <mxCell id="161" value="" style="edgeStyle=orthogonalEdgeStyle;curved=1;rounded=0;orthogonalLoop=1;jettySize=auto;html=1;fontSize=20;" parent="1" source="35" target="160" edge="1">
                    <mxGeometry relative="1" as="geometry"/>
                </mxCell>
                <mxCell id="35" value="数学分析" style="whiteSpace=wrap;html=1;rounded=1;fontSize=20;" parent="1" vertex="1">
                    <mxGeometry x="-720" y="-150" width="120" height="60" as="geometry"/>
                </mxCell>
                <mxCell id="133" style="edgeStyle=orthogonalEdgeStyle;rounded=0;orthogonalLoop=1;jettySize=auto;html=1;entryX=0.5;entryY=0;entryDx=0;entryDy=0;dashed=1;fontSize=20;curved=1;" parent="1" source="38" target="119" edge="1">
                    <mxGeometry relative="1" as="geometry"/>
                </mxCell>
                <mxCell id="38" value="概率论" style="whiteSpace=wrap;html=1;fontSize=20;rounded=1;fillColor=default;gradientColor=none;strokeColor=#007FFF;" parent="1" vertex="1">
                    <mxGeometry x="-920" y="70" width="120" height="60" as="geometry"/>
                </mxCell>
                <mxCell id="41" value="数论" style="rounded=1;whiteSpace=wrap;html=1;fontSize=20;" parent="1" vertex="1">
                    <mxGeometry x="-560" y="-70" width="120" height="60" as="geometry"/>
                </mxCell>
                <mxCell id="54" style="edgeStyle=orthogonalEdgeStyle;rounded=0;orthogonalLoop=1;jettySize=auto;html=1;fontSize=20;" parent="1" source="46" target="56" edge="1">
                    <mxGeometry relative="1" as="geometry">
                        <mxPoint x="1080" y="50" as="targetPoint"/>
                    </mxGeometry>
                </mxCell>
                <mxCell id="114" style="edgeStyle=orthogonalEdgeStyle;rounded=0;orthogonalLoop=1;jettySize=auto;html=1;entryX=0;entryY=0.5;entryDx=0;entryDy=0;fontSize=20;" parent="1" source="46" target="50" edge="1">
                    <mxGeometry relative="1" as="geometry"/>
                </mxCell>
                <mxCell id="182" style="edgeStyle=orthogonalEdgeStyle;rounded=0;orthogonalLoop=1;jettySize=auto;html=1;entryX=0;entryY=0.5;entryDx=0;entryDy=0;fontSize=20;" parent="1" source="46" target="180" edge="1">
                    <mxGeometry relative="1" as="geometry"/>
                </mxCell>
                <mxCell id="183" style="edgeStyle=orthogonalEdgeStyle;rounded=0;orthogonalLoop=1;jettySize=auto;html=1;entryX=0;entryY=0.5;entryDx=0;entryDy=0;fontSize=20;" parent="1" source="46" target="181" edge="1">
                    <mxGeometry relative="1" as="geometry"/>
                </mxCell>
                <mxCell id="248" style="edgeStyle=orthogonalEdgeStyle;rounded=0;orthogonalLoop=1;jettySize=auto;html=1;entryX=0;entryY=0.5;entryDx=0;entryDy=0;fontSize=20;" parent="1" source="46" target="247" edge="1">
                    <mxGeometry relative="1" as="geometry"/>
                </mxCell>
                <mxCell id="46" value="物理" style="ellipse;whiteSpace=wrap;html=1;aspect=fixed;fontSize=20;" parent="1" vertex="1">
                    <mxGeometry x="960" y="60" width="80" height="80" as="geometry"/>
                </mxCell>
                <mxCell id="85" style="edgeStyle=orthogonalEdgeStyle;rounded=0;orthogonalLoop=1;jettySize=auto;html=1;fontSize=20;dashed=1;entryX=0.75;entryY=0;entryDx=0;entryDy=0;curved=1;" parent="1" source="50" target="81" edge="1">
                    <mxGeometry relative="1" as="geometry"/>
                </mxCell>
                <mxCell id="50" value="电学" style="ellipse;whiteSpace=wrap;html=1;aspect=fixed;fontSize=20;strokeColor=#007FFF;" parent="1" vertex="1">
                    <mxGeometry x="1200" y="160" width="80" height="80" as="geometry"/>
                </mxCell>
                <mxCell id="313" style="edgeStyle=orthogonalEdgeStyle;rounded=0;orthogonalLoop=1;jettySize=auto;html=1;" parent="1" source="56" target="312" edge="1">
                    <mxGeometry relative="1" as="geometry"/>
                </mxCell>
                <mxCell id="56" value="力学" style="ellipse;whiteSpace=wrap;html=1;aspect=fixed;fontSize=20;strokeColor=#99CCFF;" parent="1" vertex="1">
                    <mxGeometry x="1200" y="40" width="80" height="80" as="geometry"/>
                </mxCell>
                <mxCell id="60" value="" style="edgeStyle=orthogonalEdgeStyle;rounded=0;orthogonalLoop=1;jettySize=auto;html=1;fontSize=20;" parent="1" source="57" target="59" edge="1">
                    <mxGeometry relative="1" as="geometry"/>
                </mxCell>
                <mxCell id="71" style="edgeStyle=orthogonalEdgeStyle;rounded=0;orthogonalLoop=1;jettySize=auto;html=1;fontSize=20;" parent="1" source="57" target="332" edge="1">
                    <mxGeometry relative="1" as="geometry">
                        <Array as="points">
                            <mxPoint x="-320" y="880"/>
                            <mxPoint x="-320" y="980"/>
                        </Array>
                        <mxPoint x="-440" y="1040.0285714285715" as="targetPoint"/>
                    </mxGeometry>
                </mxCell>
                <mxCell id="74" style="edgeStyle=orthogonalEdgeStyle;rounded=0;orthogonalLoop=1;jettySize=auto;html=1;fontSize=20;" parent="1" target="72" edge="1">
                    <mxGeometry relative="1" as="geometry">
                        <mxPoint x="-100" y="880" as="sourcePoint"/>
                    </mxGeometry>
                </mxCell>
                <mxCell id="95" style="edgeStyle=orthogonalEdgeStyle;rounded=0;orthogonalLoop=1;jettySize=auto;html=1;fontSize=20;" parent="1" source="57" target="94" edge="1">
                    <mxGeometry relative="1" as="geometry"/>
                </mxCell>
                <mxCell id="134" style="edgeStyle=orthogonalEdgeStyle;rounded=0;orthogonalLoop=1;jettySize=auto;html=1;entryX=0.5;entryY=1;entryDx=0;entryDy=0;fontSize=20;" parent="1" source="57" target="132" edge="1">
                    <mxGeometry relative="1" as="geometry"/>
                </mxCell>
                <mxCell id="147" style="edgeStyle=orthogonalEdgeStyle;rounded=0;orthogonalLoop=1;jettySize=auto;html=1;entryX=1;entryY=0.5;entryDx=0;entryDy=0;fontSize=20;" parent="1" source="57" target="146" edge="1">
                    <mxGeometry relative="1" as="geometry">
                        <Array as="points">
                            <mxPoint x="-320" y="880"/>
                            <mxPoint x="-320" y="1040"/>
                        </Array>
                    </mxGeometry>
                </mxCell>
                <mxCell id="252" style="edgeStyle=orthogonalEdgeStyle;rounded=0;orthogonalLoop=1;jettySize=auto;html=1;entryX=1;entryY=0.5;entryDx=0;entryDy=0;fontSize=20;" parent="1" source="57" target="250" edge="1">
                    <mxGeometry relative="1" as="geometry">
                        <Array as="points">
                            <mxPoint x="-320" y="880"/>
                            <mxPoint x="-320" y="920"/>
                        </Array>
                    </mxGeometry>
                </mxCell>
                <mxCell id="337" style="edgeStyle=orthogonalEdgeStyle;html=1;rounded=0;" edge="1" parent="1" source="57" target="335">
                    <mxGeometry relative="1" as="geometry">
                        <Array as="points">
                            <mxPoint x="-240" y="880"/>
                        </Array>
                    </mxGeometry>
                </mxCell>
                <mxCell id="57" value="&lt;font style=&quot;font-size: 18px&quot;&gt;编程语言&lt;/font&gt;" style="ellipse;whiteSpace=wrap;html=1;aspect=fixed;fontSize=20;" parent="1" vertex="1">
                    <mxGeometry x="-140" y="840" width="80" height="80" as="geometry"/>
                </mxCell>
                <mxCell id="64" style="edgeStyle=orthogonalEdgeStyle;rounded=0;orthogonalLoop=1;jettySize=auto;html=1;fontSize=20;" parent="1" source="59" target="63" edge="1">
                    <mxGeometry relative="1" as="geometry"/>
                </mxCell>
                <mxCell id="308" style="edgeStyle=orthogonalEdgeStyle;rounded=0;orthogonalLoop=1;jettySize=auto;html=1;" parent="1" source="59" target="68" edge="1">
                    <mxGeometry relative="1" as="geometry"/>
                </mxCell>
                <mxCell id="59" value="C" style="whiteSpace=wrap;html=1;fontSize=20;rounded=1;fillColor=#0050ef;strokeColor=#001DBC;fontColor=#ffffff;" parent="1" vertex="1">
                    <mxGeometry x="-40" y="960" width="80" height="40" as="geometry"/>
                </mxCell>
                <mxCell id="63" value="C精通" style="whiteSpace=wrap;html=1;fontSize=20;rounded=1;gradientColor=none;strokeColor=#007FFF;" parent="1" vertex="1">
                    <mxGeometry x="-40" y="1080" width="80" height="40" as="geometry"/>
                </mxCell>
                <mxCell id="262" style="edgeStyle=orthogonalEdgeStyle;rounded=0;orthogonalLoop=1;jettySize=auto;html=1;" parent="1" source="68" target="261" edge="1">
                    <mxGeometry relative="1" as="geometry"/>
                </mxCell>
                <mxCell id="336" style="edgeStyle=none;html=1;" edge="1" parent="1" source="68" target="283">
                    <mxGeometry relative="1" as="geometry"/>
                </mxCell>
                <mxCell id="68" value="C++&lt;br&gt;OOP" style="rounded=1;whiteSpace=wrap;html=1;fontSize=20;fillColor=#0050ef;fontColor=#ffffff;strokeColor=#001DBC;" parent="1" vertex="1">
                    <mxGeometry x="80" y="960" width="80" height="40" as="geometry"/>
                </mxCell>
                <mxCell id="75" style="edgeStyle=orthogonalEdgeStyle;rounded=0;orthogonalLoop=1;jettySize=auto;html=1;fontSize=20;" parent="1" source="72" target="73" edge="1">
                    <mxGeometry relative="1" as="geometry"/>
                </mxCell>
                <mxCell id="72" value="Python" style="rounded=1;whiteSpace=wrap;html=1;fontSize=20;fillColor=#0050ef;strokeColor=#001DBC;fontColor=#ffffff;" parent="1" vertex="1">
                    <mxGeometry x="-140" y="960" width="80" height="40" as="geometry"/>
                </mxCell>
                <mxCell id="221" style="edgeStyle=orthogonalEdgeStyle;curved=1;rounded=0;orthogonalLoop=1;jettySize=auto;html=1;entryX=1;entryY=1;entryDx=0;entryDy=0;dashed=1;fontSize=20;" parent="1" source="73" target="119" edge="1">
                    <mxGeometry relative="1" as="geometry"/>
                </mxCell>
                <mxCell id="73" value="Python精通" style="rounded=1;whiteSpace=wrap;html=1;gradientColor=none;fontSize=20;strokeColor=#007FFF;" parent="1" vertex="1">
                    <mxGeometry x="-180" y="1090" width="120" height="60" as="geometry"/>
                </mxCell>
                <mxCell id="164" style="edgeStyle=orthogonalEdgeStyle;rounded=0;orthogonalLoop=1;jettySize=auto;html=1;entryX=1;entryY=0.5;entryDx=0;entryDy=0;fontSize=20;" parent="1" source="77" target="162" edge="1">
                    <mxGeometry relative="1" as="geometry"/>
                </mxCell>
                <mxCell id="167" style="edgeStyle=orthogonalEdgeStyle;rounded=0;orthogonalLoop=1;jettySize=auto;html=1;entryX=1;entryY=0.5;entryDx=0;entryDy=0;fontSize=20;" parent="1" source="77" target="166" edge="1">
                    <mxGeometry relative="1" as="geometry"/>
                </mxCell>
                <mxCell id="171" style="edgeStyle=orthogonalEdgeStyle;rounded=0;orthogonalLoop=1;jettySize=auto;html=1;entryX=1;entryY=0.5;entryDx=0;entryDy=0;fontSize=20;" parent="1" source="77" target="168" edge="1">
                    <mxGeometry relative="1" as="geometry"/>
                </mxCell>
                <mxCell id="172" style="edgeStyle=orthogonalEdgeStyle;rounded=0;orthogonalLoop=1;jettySize=auto;html=1;entryX=1;entryY=0.5;entryDx=0;entryDy=0;fontSize=20;" parent="1" source="77" target="169" edge="1">
                    <mxGeometry relative="1" as="geometry"/>
                </mxCell>
                <mxCell id="173" style="edgeStyle=orthogonalEdgeStyle;rounded=0;orthogonalLoop=1;jettySize=auto;html=1;entryX=1;entryY=0.5;entryDx=0;entryDy=0;fontSize=20;" parent="1" source="77" target="170" edge="1">
                    <mxGeometry relative="1" as="geometry"/>
                </mxCell>
                <mxCell id="175" style="edgeStyle=orthogonalEdgeStyle;rounded=0;orthogonalLoop=1;jettySize=auto;html=1;entryX=1;entryY=0.5;entryDx=0;entryDy=0;fontSize=20;" parent="1" source="77" target="174" edge="1">
                    <mxGeometry relative="1" as="geometry"/>
                </mxCell>
                <mxCell id="177" style="edgeStyle=orthogonalEdgeStyle;rounded=0;orthogonalLoop=1;jettySize=auto;html=1;entryX=1;entryY=0.5;entryDx=0;entryDy=0;fontSize=20;" parent="1" source="77" target="176" edge="1">
                    <mxGeometry relative="1" as="geometry"/>
                </mxCell>
                <mxCell id="179" style="edgeStyle=orthogonalEdgeStyle;rounded=0;orthogonalLoop=1;jettySize=auto;html=1;fontSize=20;" parent="1" source="77" target="178" edge="1">
                    <mxGeometry relative="1" as="geometry"/>
                </mxCell>
                <mxCell id="249" style="edgeStyle=orthogonalEdgeStyle;curved=1;rounded=0;orthogonalLoop=1;jettySize=auto;html=1;dashed=1;fontSize=20;exitX=1;exitY=0;exitDx=0;exitDy=0;" parent="1" source="77" target="247" edge="1">
                    <mxGeometry relative="1" as="geometry"/>
                </mxCell>
                <mxCell id="255" style="edgeStyle=orthogonalEdgeStyle;rounded=0;orthogonalLoop=1;jettySize=auto;html=1;entryX=1;entryY=0.5;entryDx=0;entryDy=0;" parent="1" source="77" target="253" edge="1">
                    <mxGeometry relative="1" as="geometry"/>
                </mxCell>
                <mxCell id="319" style="edgeStyle=orthogonalEdgeStyle;rounded=0;orthogonalLoop=1;jettySize=auto;html=1;entryX=1;entryY=0.5;entryDx=0;entryDy=0;" parent="1" source="77" target="318" edge="1">
                    <mxGeometry relative="1" as="geometry"/>
                </mxCell>
                <mxCell id="77" value="算法" style="ellipse;whiteSpace=wrap;html=1;aspect=fixed;fontSize=20;" parent="1" vertex="1">
                    <mxGeometry x="-1320" y="680" width="80" height="80" as="geometry"/>
                </mxCell>
                <mxCell id="81" value="模拟电路" style="rounded=1;whiteSpace=wrap;html=1;gradientColor=none;fontSize=20;" parent="1" vertex="1">
                    <mxGeometry x="1340" y="850" width="120" height="60" as="geometry"/>
                </mxCell>
                <mxCell id="84" value="数字电路" style="rounded=1;whiteSpace=wrap;html=1;gradientColor=none;fontSize=20;" parent="1" vertex="1">
                    <mxGeometry x="1179" y="850" width="120" height="60" as="geometry"/>
                </mxCell>
                <mxCell id="87" value="" style="endArrow=classic;html=1;fontSize=20;exitX=0;exitY=0.5;exitDx=0;exitDy=0;dashed=1;edgeStyle=orthogonalEdgeStyle;curved=1;" parent="1" source="81" target="84" edge="1">
                    <mxGeometry width="50" height="50" relative="1" as="geometry">
                        <mxPoint x="1139" y="800" as="sourcePoint"/>
                        <mxPoint x="1189" y="750" as="targetPoint"/>
                    </mxGeometry>
                </mxCell>
                <mxCell id="89" value="单片机" style="rounded=1;whiteSpace=wrap;html=1;gradientColor=none;fontSize=20;" parent="1" vertex="1">
                    <mxGeometry x="1020" y="1090" width="120" height="60" as="geometry"/>
                </mxCell>
                <mxCell id="92" value="" style="endArrow=classic;html=1;fontSize=20;dashed=1;edgeStyle=orthogonalEdgeStyle;curved=1;entryX=0.75;entryY=0;entryDx=0;entryDy=0;exitX=0.25;exitY=1;exitDx=0;exitDy=0;" parent="1" source="84" target="89" edge="1">
                    <mxGeometry width="50" height="50" relative="1" as="geometry">
                        <mxPoint x="1419.94" y="970" as="sourcePoint"/>
                        <mxPoint x="1319.9988235294118" y="1050" as="targetPoint"/>
                    </mxGeometry>
                </mxCell>
                <mxCell id="229" style="edgeStyle=orthogonalEdgeStyle;rounded=0;orthogonalLoop=1;jettySize=auto;html=1;entryX=0.5;entryY=1;entryDx=0;entryDy=0;fontSize=20;curved=1;dashed=1;" parent="1" source="94" target="89" edge="1">
                    <mxGeometry relative="1" as="geometry">
                        <Array as="points">
                            <mxPoint x="310" y="1240"/>
                            <mxPoint x="1080" y="1240"/>
                        </Array>
                    </mxGeometry>
                </mxCell>
                <mxCell id="94" value="汇编" style="rounded=1;whiteSpace=wrap;html=1;gradientColor=none;fontSize=20;" parent="1" vertex="1">
                    <mxGeometry x="250" y="1010" width="120" height="60" as="geometry"/>
                </mxCell>
                <mxCell id="235" style="edgeStyle=orthogonalEdgeStyle;rounded=0;orthogonalLoop=1;jettySize=auto;html=1;fontSize=20;entryX=0;entryY=0.5;entryDx=0;entryDy=0;" parent="1" source="100" target="234" edge="1">
                    <mxGeometry relative="1" as="geometry"/>
                </mxCell>
                <mxCell id="236" style="edgeStyle=orthogonalEdgeStyle;rounded=0;orthogonalLoop=1;jettySize=auto;html=1;entryX=0;entryY=0.5;entryDx=0;entryDy=0;fontSize=20;" parent="1" source="100" target="231" edge="1">
                    <mxGeometry relative="1" as="geometry"/>
                </mxCell>
                <mxCell id="240" style="edgeStyle=orthogonalEdgeStyle;rounded=0;orthogonalLoop=1;jettySize=auto;html=1;entryX=0;entryY=0.5;entryDx=0;entryDy=0;fontSize=20;" parent="1" source="100" target="237" edge="1">
                    <mxGeometry relative="1" as="geometry"/>
                </mxCell>
                <mxCell id="100" value="生物" style="ellipse;whiteSpace=wrap;html=1;aspect=fixed;rounded=1;gradientColor=none;fontSize=20;" parent="1" vertex="1">
                    <mxGeometry x="960" y="-400" width="80" height="80" as="geometry"/>
                </mxCell>
                <mxCell id="106" style="edgeStyle=orthogonalEdgeStyle;rounded=0;orthogonalLoop=1;jettySize=auto;html=1;fontSize=20;" parent="1" source="103" target="105" edge="1">
                    <mxGeometry relative="1" as="geometry"/>
                </mxCell>
                <mxCell id="116" style="edgeStyle=orthogonalEdgeStyle;rounded=0;orthogonalLoop=1;jettySize=auto;html=1;fontSize=20;" parent="1" source="103" target="115" edge="1">
                    <mxGeometry relative="1" as="geometry"/>
                </mxCell>
                <mxCell id="130" style="edgeStyle=orthogonalEdgeStyle;rounded=0;orthogonalLoop=1;jettySize=auto;html=1;fontSize=20;" parent="1" source="103" target="117" edge="1">
                    <mxGeometry relative="1" as="geometry"/>
                </mxCell>
                <mxCell id="103" value="计算机科学" style="ellipse;whiteSpace=wrap;html=1;aspect=fixed;rounded=1;gradientColor=none;fontSize=20;" parent="1" vertex="1">
                    <mxGeometry x="600" y="680" width="80" height="80" as="geometry"/>
                </mxCell>
                <mxCell id="105" value="组成原理" style="rounded=1;whiteSpace=wrap;html=1;gradientColor=none;fontSize=20;strokeColor=#99CCFF;" parent="1" vertex="1">
                    <mxGeometry x="740" y="850" width="120" height="60" as="geometry"/>
                </mxCell>
                <mxCell id="281" style="edgeStyle=orthogonalEdgeStyle;rounded=0;orthogonalLoop=1;jettySize=auto;html=1;" parent="1" source="107" target="280" edge="1">
                    <mxGeometry relative="1" as="geometry"/>
                </mxCell>
                <mxCell id="282" style="edgeStyle=orthogonalEdgeStyle;rounded=0;orthogonalLoop=1;jettySize=auto;html=1;" parent="1" source="107" target="278" edge="1">
                    <mxGeometry relative="1" as="geometry"/>
                </mxCell>
                <mxCell id="107" value="经济学" style="ellipse;whiteSpace=wrap;html=1;aspect=fixed;rounded=1;gradientColor=none;fontSize=20;" parent="1" vertex="1">
                    <mxGeometry x="340" y="-120" width="80" height="80" as="geometry"/>
                </mxCell>
                <mxCell id="239" style="edgeStyle=orthogonalEdgeStyle;rounded=0;orthogonalLoop=1;jettySize=auto;html=1;fontSize=20;entryX=0;entryY=0.5;entryDx=0;entryDy=0;" parent="1" source="110" target="238" edge="1">
                    <mxGeometry relative="1" as="geometry"/>
                </mxCell>
                <mxCell id="259" style="edgeStyle=orthogonalEdgeStyle;rounded=0;orthogonalLoop=1;jettySize=auto;html=1;entryX=0;entryY=0.5;entryDx=0;entryDy=0;" parent="1" source="110" target="257" edge="1">
                    <mxGeometry relative="1" as="geometry"/>
                </mxCell>
                <mxCell id="260" style="edgeStyle=orthogonalEdgeStyle;rounded=0;orthogonalLoop=1;jettySize=auto;html=1;entryX=0;entryY=0.5;entryDx=0;entryDy=0;" parent="1" source="110" target="256" edge="1">
                    <mxGeometry relative="1" as="geometry"/>
                </mxCell>
                <mxCell id="110" value="化学" style="ellipse;whiteSpace=wrap;html=1;aspect=fixed;rounded=1;gradientColor=none;fontSize=20;" parent="1" vertex="1">
                    <mxGeometry x="960" y="-720" width="80" height="80" as="geometry"/>
                </mxCell>
                <mxCell id="115" value="网络" style="rounded=1;whiteSpace=wrap;html=1;gradientColor=none;fontSize=20;" parent="1" vertex="1">
                    <mxGeometry x="600" y="855" width="80" height="50" as="geometry"/>
                </mxCell>
                <mxCell id="155" style="edgeStyle=orthogonalEdgeStyle;rounded=0;orthogonalLoop=1;jettySize=auto;html=1;entryX=0.75;entryY=0;entryDx=0;entryDy=0;fontSize=20;curved=1;dashed=1;exitX=0.196;exitY=-0.008;exitDx=0;exitDy=0;exitPerimeter=0;" parent="1" source="117" target="152" edge="1">
                    <mxGeometry relative="1" as="geometry">
                        <Array as="points">
                            <mxPoint x="444" y="800"/>
                            <mxPoint x="-610" y="800"/>
                        </Array>
                    </mxGeometry>
                </mxCell>
                <mxCell id="117" value="操作系统" style="rounded=1;whiteSpace=wrap;html=1;gradientColor=none;fontSize=20;" parent="1" vertex="1">
                    <mxGeometry x="420" y="850" width="120" height="60" as="geometry"/>
                </mxCell>
                <mxCell id="316" style="edgeStyle=orthogonalEdgeStyle;rounded=0;orthogonalLoop=1;jettySize=auto;html=1;" parent="1" source="119" target="314" edge="1">
                    <mxGeometry relative="1" as="geometry"/>
                </mxCell>
                <mxCell id="317" style="edgeStyle=orthogonalEdgeStyle;rounded=0;orthogonalLoop=1;jettySize=auto;html=1;entryX=1;entryY=0.5;entryDx=0;entryDy=0;" parent="1" source="119" target="315" edge="1">
                    <mxGeometry relative="1" as="geometry"/>
                </mxCell>
                <mxCell id="119" value="&lt;font style=&quot;font-size: 19px&quot;&gt;人工智能&lt;/font&gt;" style="ellipse;whiteSpace=wrap;html=1;aspect=fixed;rounded=1;gradientColor=none;fontSize=20;" parent="1" vertex="1">
                    <mxGeometry x="-1440" y="540" width="80" height="80" as="geometry"/>
                </mxCell>
                <mxCell id="132" value="Matlab&lt;br&gt;(Octave)" style="rounded=1;whiteSpace=wrap;html=1;gradientColor=none;fontSize=20;strokeColor=#007FFF;" parent="1" vertex="1">
                    <mxGeometry x="-440" y="720" width="80" height="60" as="geometry"/>
                </mxCell>
                <mxCell id="139" style="edgeStyle=orthogonalEdgeStyle;rounded=0;orthogonalLoop=1;jettySize=auto;html=1;fontSize=20;" parent="1" source="136" target="138" edge="1">
                    <mxGeometry relative="1" as="geometry"/>
                </mxCell>
                <mxCell id="153" style="edgeStyle=orthogonalEdgeStyle;rounded=0;orthogonalLoop=1;jettySize=auto;html=1;fontSize=20;" parent="1" source="136" target="152" edge="1">
                    <mxGeometry relative="1" as="geometry"/>
                </mxCell>
                <mxCell id="271" style="edgeStyle=orthogonalEdgeStyle;rounded=0;orthogonalLoop=1;jettySize=auto;html=1;" parent="1" source="136" target="270" edge="1">
                    <mxGeometry relative="1" as="geometry"/>
                </mxCell>
                <mxCell id="274" style="edgeStyle=orthogonalEdgeStyle;rounded=0;orthogonalLoop=1;jettySize=auto;html=1;" parent="1" source="136" target="273" edge="1">
                    <mxGeometry relative="1" as="geometry"/>
                </mxCell>
                <mxCell id="136" value="工程" style="ellipse;whiteSpace=wrap;html=1;aspect=fixed;rounded=1;gradientColor=none;fontSize=20;" parent="1" vertex="1">
                    <mxGeometry x="-840" y="680" width="80" height="80" as="geometry"/>
                </mxCell>
                <mxCell id="141" style="edgeStyle=orthogonalEdgeStyle;rounded=0;orthogonalLoop=1;jettySize=auto;html=1;fontSize=20;" parent="1" source="138" target="140" edge="1">
                    <mxGeometry relative="1" as="geometry"/>
                </mxCell>
                <mxCell id="138" value="Git" style="rounded=1;whiteSpace=wrap;html=1;gradientColor=none;fontSize=20;" parent="1" vertex="1">
                    <mxGeometry x="-1020" y="850" width="120" height="60" as="geometry"/>
                </mxCell>
                <mxCell id="140" value="Github" style="rounded=1;whiteSpace=wrap;html=1;fontSize=20;fillColor=#0050ef;strokeColor=#001DBC;fontColor=#ffffff;" parent="1" vertex="1">
                    <mxGeometry x="-1020" y="970" width="120" height="60" as="geometry"/>
                </mxCell>
                <mxCell id="146" value="Go" style="rounded=1;whiteSpace=wrap;html=1;gradientColor=none;fontSize=20;" parent="1" vertex="1">
                    <mxGeometry x="-520" y="1020" width="80" height="40" as="geometry"/>
                </mxCell>
                <mxCell id="217" style="edgeStyle=orthogonalEdgeStyle;rounded=0;orthogonalLoop=1;jettySize=auto;html=1;fontSize=20;curved=1;dashed=1;" parent="1" source="148" target="215" edge="1">
                    <mxGeometry relative="1" as="geometry"/>
                </mxCell>
                <mxCell id="148" value="Markdown" style="rounded=1;whiteSpace=wrap;html=1;fontSize=20;fillColor=#0050ef;strokeColor=#001DBC;fontColor=#ffffff;" parent="1" vertex="1">
                    <mxGeometry x="-250" y="-270" width="100" height="60" as="geometry"/>
                </mxCell>
                <mxCell id="152" value="Linux" style="rounded=1;whiteSpace=wrap;html=1;gradientColor=none;fontSize=20;" parent="1" vertex="1">
                    <mxGeometry x="-700" y="850" width="120" height="60" as="geometry"/>
                </mxCell>
                <mxCell id="160" value="&lt;span class=&quot;RichText ztext CopyrightRichText-richText&quot; itemprop=&quot;text&quot;&gt;&lt;b&gt;泛函分析&lt;/b&gt;&lt;/span&gt;" style="whiteSpace=wrap;html=1;rounded=1;fontSize=20;strokeColor=#808080;" parent="1" vertex="1">
                    <mxGeometry x="-720" y="-270" width="120" height="60" as="geometry"/>
                </mxCell>
                <mxCell id="162" value="二分" style="rounded=1;whiteSpace=wrap;html=1;shadow=1;glass=0;fillColor=#0050ef;fontSize=20;strokeColor=#001DBC;fontColor=#ffffff;" parent="1" vertex="1">
                    <mxGeometry x="-1380" y="900" width="80" height="40" as="geometry"/>
                </mxCell>
                <mxCell id="166" value="递归" style="rounded=1;whiteSpace=wrap;html=1;shadow=1;glass=0;fillColor=#0050ef;fontSize=20;strokeColor=#001DBC;fontColor=#ffffff;" parent="1" vertex="1">
                    <mxGeometry x="-1380" y="820" width="80" height="40" as="geometry"/>
                </mxCell>
                <mxCell id="168" value="分治" style="rounded=1;whiteSpace=wrap;html=1;shadow=1;glass=0;fillColor=none;gradientColor=none;fontSize=20;strokeColor=#007FFF;" parent="1" vertex="1">
                    <mxGeometry x="-1420" y="970" width="120" height="60" as="geometry"/>
                </mxCell>
                <mxCell id="169" value="DFS" style="rounded=1;whiteSpace=wrap;html=1;shadow=1;glass=0;fillColor=none;gradientColor=none;fontSize=20;strokeColor=#007FFF;" parent="1" vertex="1">
                    <mxGeometry x="-1420" y="1050" width="120" height="60" as="geometry"/>
                </mxCell>
                <mxCell id="170" value="BFS" style="rounded=1;whiteSpace=wrap;html=1;shadow=1;glass=0;fillColor=none;gradientColor=none;fontSize=20;strokeColor=#007FFF;" parent="1" vertex="1">
                    <mxGeometry x="-1420" y="1130" width="120" height="60" as="geometry"/>
                </mxCell>
                <mxCell id="174" value="动态规划" style="rounded=1;whiteSpace=wrap;html=1;shadow=1;glass=0;fillColor=none;gradientColor=none;fontSize=20;strokeColor=#007FFF;" parent="1" vertex="1">
                    <mxGeometry x="-1420" y="1210" width="120" height="60" as="geometry"/>
                </mxCell>
                <mxCell id="176" value="贪心" style="rounded=1;whiteSpace=wrap;html=1;shadow=1;glass=0;fillColor=none;gradientColor=none;fontSize=20;strokeColor=#007FFF;" parent="1" vertex="1">
                    <mxGeometry x="-1420" y="1290" width="120" height="60" as="geometry"/>
                </mxCell>
                <mxCell id="304" style="edgeStyle=orthogonalEdgeStyle;rounded=0;orthogonalLoop=1;jettySize=auto;html=1;entryX=1;entryY=0.5;entryDx=0;entryDy=0;" parent="1" source="178" target="303" edge="1">
                    <mxGeometry relative="1" as="geometry"/>
                </mxCell>
                <mxCell id="307" style="edgeStyle=orthogonalEdgeStyle;rounded=0;orthogonalLoop=1;jettySize=auto;html=1;entryX=1;entryY=0.5;entryDx=0;entryDy=0;" parent="1" source="178" target="306" edge="1">
                    <mxGeometry relative="1" as="geometry"/>
                </mxCell>
                <mxCell id="178" value="&lt;span&gt;数据&lt;br&gt;结构&lt;/span&gt;" style="ellipse;whiteSpace=wrap;html=1;aspect=fixed;rounded=1;shadow=1;glass=0;strokeColor=#FFFFFF;fillColor=none;gradientColor=none;fontSize=20;" parent="1" vertex="1">
                    <mxGeometry x="-1520" y="680" width="80" height="80" as="geometry"/>
                </mxCell>
                <mxCell id="207" style="edgeStyle=orthogonalEdgeStyle;rounded=0;orthogonalLoop=1;jettySize=auto;html=1;fontSize=20;" parent="1" source="180" target="205" edge="1">
                    <mxGeometry relative="1" as="geometry"/>
                </mxCell>
                <mxCell id="180" value="量子&lt;br&gt;力学" style="ellipse;whiteSpace=wrap;html=1;aspect=fixed;rounded=1;shadow=1;glass=0;strokeColor=#FFFFFF;fillColor=none;gradientColor=none;fontSize=20;" parent="1" vertex="1">
                    <mxGeometry x="1200" y="-80" width="80" height="80" as="geometry"/>
                </mxCell>
                <mxCell id="181" value="相对论" style="ellipse;whiteSpace=wrap;html=1;aspect=fixed;rounded=1;shadow=1;glass=0;strokeColor=#FFFFFF;fillColor=none;gradientColor=none;fontSize=20;" parent="1" vertex="1">
                    <mxGeometry x="1200" y="-200" width="80" height="80" as="geometry"/>
                </mxCell>
                <mxCell id="205" value="量子&lt;br&gt;计算" style="ellipse;whiteSpace=wrap;html=1;aspect=fixed;fontSize=20;" parent="1" vertex="1">
                    <mxGeometry x="1400" y="-80" width="80" height="80" as="geometry"/>
                </mxCell>
                <mxCell id="227" style="edgeStyle=orthogonalEdgeStyle;rounded=0;orthogonalLoop=1;jettySize=auto;html=1;entryX=0.5;entryY=0;entryDx=0;entryDy=0;fontSize=20;exitX=0;exitY=0.5;exitDx=0;exitDy=0;" parent="1" source="213" target="226" edge="1">
                    <mxGeometry relative="1" as="geometry"/>
                </mxCell>
                <mxCell id="228" style="edgeStyle=orthogonalEdgeStyle;rounded=0;orthogonalLoop=1;jettySize=auto;html=1;fontSize=20;" parent="1" source="213" target="89" edge="1">
                    <mxGeometry relative="1" as="geometry"/>
                </mxCell>
                <mxCell id="213" value="IoT" style="ellipse;whiteSpace=wrap;html=1;aspect=fixed;rounded=1;shadow=1;glass=0;strokeColor=#FFFFFF;fillColor=none;gradientColor=none;fontSize=20;" parent="1" vertex="1">
                    <mxGeometry x="920" y="950" width="80" height="80" as="geometry"/>
                </mxCell>
                <mxCell id="215" value="LaTex" style="rounded=1;whiteSpace=wrap;html=1;gradientColor=none;fontSize=20;" parent="1" vertex="1">
                    <mxGeometry x="-100" y="-270" width="120" height="60" as="geometry"/>
                </mxCell>
                <mxCell id="226" value="Arduino" style="rounded=1;whiteSpace=wrap;html=1;fontSize=20;strokeColor=#001DBC;fillColor=#0050ef;fontColor=#ffffff;" parent="1" vertex="1">
                    <mxGeometry x="820" y="1090" width="120" height="60" as="geometry"/>
                </mxCell>
                <mxCell id="242" style="edgeStyle=orthogonalEdgeStyle;rounded=0;orthogonalLoop=1;jettySize=auto;html=1;fontSize=20;" parent="1" source="231" target="241" edge="1">
                    <mxGeometry relative="1" as="geometry"/>
                </mxCell>
                <mxCell id="231" value="分子生物学" style="rounded=1;whiteSpace=wrap;html=1;shadow=1;glass=0;fillColor=none;gradientColor=none;fontSize=20;strokeColor=#FFFFFF;" parent="1" vertex="1">
                    <mxGeometry x="1180" y="-390" width="120" height="60" as="geometry"/>
                </mxCell>
                <mxCell id="243" style="edgeStyle=orthogonalEdgeStyle;rounded=0;orthogonalLoop=1;jettySize=auto;html=1;fontSize=20;" parent="1" source="234" target="241" edge="1">
                    <mxGeometry relative="1" as="geometry"/>
                </mxCell>
                <mxCell id="234" value="遗传学" style="rounded=1;whiteSpace=wrap;html=1;shadow=1;glass=0;fillColor=none;gradientColor=none;fontSize=20;strokeColor=#99CCFF;" parent="1" vertex="1">
                    <mxGeometry x="1180" y="-310" width="120" height="60" as="geometry"/>
                </mxCell>
                <mxCell id="237" value="生物化学" style="rounded=1;whiteSpace=wrap;html=1;shadow=1;glass=0;fillColor=none;gradientColor=none;fontSize=20;strokeColor=#FFFFFF;" parent="1" vertex="1">
                    <mxGeometry x="1180" y="-470" width="120" height="60" as="geometry"/>
                </mxCell>
                <mxCell id="246" style="edgeStyle=orthogonalEdgeStyle;curved=1;rounded=0;orthogonalLoop=1;jettySize=auto;html=1;dashed=1;fontSize=20;" parent="1" source="238" target="237" edge="1">
                    <mxGeometry relative="1" as="geometry"/>
                </mxCell>
                <mxCell id="238" value="有机化学" style="rounded=1;whiteSpace=wrap;html=1;shadow=1;glass=0;fillColor=none;gradientColor=none;fontSize=20;strokeColor=#FFFFFF;" parent="1" vertex="1">
                    <mxGeometry x="1180" y="-630" width="120" height="60" as="geometry"/>
                </mxCell>
                <mxCell id="241" value="生物信息学" style="rounded=1;whiteSpace=wrap;html=1;shadow=1;glass=0;fillColor=none;gradientColor=none;fontSize=20;strokeColor=#99CCFF;" parent="1" vertex="1">
                    <mxGeometry x="1380" y="-350" width="120" height="60" as="geometry"/>
                </mxCell>
                <mxCell id="247" value="计算物理学" style="rounded=1;whiteSpace=wrap;html=1;shadow=1;glass=0;fillColor=none;gradientColor=none;fontSize=20;strokeColor=#FFFFFF;" parent="1" vertex="1">
                    <mxGeometry x="1200" y="300" width="120" height="60" as="geometry"/>
                </mxCell>
                <mxCell id="250" value="HTML" style="rounded=1;whiteSpace=wrap;html=1;gradientColor=none;fontSize=20;" parent="1" vertex="1">
                    <mxGeometry x="-520" y="900" width="80" height="40" as="geometry"/>
                </mxCell>
                <mxCell id="253" value="图论" style="rounded=1;whiteSpace=wrap;html=1;shadow=1;glass=0;fillColor=none;gradientColor=none;fontSize=20;strokeColor=#FFFFFF;" parent="1" vertex="1">
                    <mxGeometry x="-1420" y="1370" width="120" height="60" as="geometry"/>
                </mxCell>
                <mxCell id="256" value="无机化学" style="rounded=1;whiteSpace=wrap;html=1;shadow=1;glass=0;fillColor=none;gradientColor=none;fontSize=20;strokeColor=#FFFFFF;" parent="1" vertex="1">
                    <mxGeometry x="1179" y="-710" width="120" height="60" as="geometry"/>
                </mxCell>
                <mxCell id="257" value="反应原理" style="rounded=1;whiteSpace=wrap;html=1;shadow=1;glass=0;fillColor=none;gradientColor=none;fontSize=20;strokeColor=#FFFFFF;" parent="1" vertex="1">
                    <mxGeometry x="1179" y="-790" width="120" height="60" as="geometry"/>
                </mxCell>
                <mxCell id="261" value="Qt" style="rounded=1;whiteSpace=wrap;html=1;gradientColor=none;fontSize=20;" parent="1" vertex="1">
                    <mxGeometry x="60" y="1070" width="120" height="60" as="geometry"/>
                </mxCell>
                <mxCell id="265" value="FGPA" style="rounded=1;whiteSpace=wrap;html=1;gradientColor=none;fontSize=20;" parent="1" vertex="1">
                    <mxGeometry x="1020" y="850" width="120" height="60" as="geometry"/>
                </mxCell>
                <mxCell id="267" value="抽象代数" style="whiteSpace=wrap;html=1;rounded=1;fontSize=20;strokeColor=#808080;" parent="1" vertex="1">
                    <mxGeometry x="-1120" y="220" width="120" height="60" as="geometry"/>
                </mxCell>
                <mxCell id="270" value="Unity" style="rounded=1;whiteSpace=wrap;html=1;gradientColor=none;fontSize=20;" parent="1" vertex="1">
                    <mxGeometry x="-860" y="850" width="120" height="60" as="geometry"/>
                </mxCell>
                <mxCell id="273" value="服务器" style="rounded=1;whiteSpace=wrap;html=1;gradientColor=none;fontSize=20;" parent="1" vertex="1">
                    <mxGeometry x="-1180" y="850" width="120" height="60" as="geometry"/>
                </mxCell>
                <mxCell id="278" value="宏观经济学" style="rounded=1;whiteSpace=wrap;html=1;shadow=1;glass=0;fillColor=none;gradientColor=none;fontSize=20;strokeColor=#FFFFFF;" parent="1" vertex="1">
                    <mxGeometry x="420" y="-230" width="120" height="60" as="geometry"/>
                </mxCell>
                <mxCell id="280" value="宏观经济学" style="rounded=1;whiteSpace=wrap;html=1;shadow=1;glass=0;fillColor=none;gradientColor=none;fontSize=20;strokeColor=#FFFFFF;" parent="1" vertex="1">
                    <mxGeometry x="260" y="-230" width="120" height="60" as="geometry"/>
                </mxCell>
                <mxCell id="283" value="C++&lt;br&gt;STL" style="rounded=1;whiteSpace=wrap;html=1;gradientColor=none;fontSize=20;strokeColor=#007FFF;" parent="1" vertex="1">
                    <mxGeometry x="80" y="900" width="80" height="40" as="geometry"/>
                </mxCell>
                <mxCell id="303" value="队列" style="rounded=1;whiteSpace=wrap;html=1;shadow=1;glass=0;fillColor=#0050ef;fontSize=20;strokeColor=#001DBC;fontColor=#ffffff;" parent="1" vertex="1">
                    <mxGeometry x="-1620" y="810" width="100" height="60" as="geometry"/>
                </mxCell>
                <mxCell id="306" value="树" style="rounded=1;whiteSpace=wrap;html=1;shadow=1;glass=0;fillColor=none;gradientColor=none;fontSize=20;strokeColor=#FFFFFF;" parent="1" vertex="1">
                    <mxGeometry x="-1640" y="890" width="120" height="60" as="geometry"/>
                </mxCell>
                <mxCell id="312" value="理论&lt;br&gt;力学" style="ellipse;whiteSpace=wrap;html=1;aspect=fixed;fontSize=20;strokeColor=#99CCFF;" parent="1" vertex="1">
                    <mxGeometry x="1320" y="40" width="80" height="80" as="geometry"/>
                </mxCell>
                <mxCell id="314" value="机器&lt;br&gt;学习" style="ellipse;whiteSpace=wrap;html=1;aspect=fixed;rounded=1;shadow=1;glass=0;strokeColor=#FFFFFF;fillColor=none;gradientColor=none;fontSize=20;" parent="1" vertex="1">
                    <mxGeometry x="-1600" y="540" width="80" height="80" as="geometry"/>
                </mxCell>
                <mxCell id="315" value="深度&lt;br&gt;学习" style="ellipse;whiteSpace=wrap;html=1;aspect=fixed;rounded=1;shadow=1;glass=0;fillColor=none;gradientColor=none;fontSize=20;strokeColor=#007FFF;" parent="1" vertex="1">
                    <mxGeometry x="-1600" y="400" width="80" height="80" as="geometry"/>
                </mxCell>
                <mxCell id="318" value="计算几何" style="rounded=1;whiteSpace=wrap;html=1;shadow=1;glass=0;fillColor=none;gradientColor=none;fontSize=20;strokeColor=#FFFFFF;" parent="1" vertex="1">
                    <mxGeometry x="-1420" y="1450" width="120" height="60" as="geometry"/>
                </mxCell>
                <mxCell id="330" style="edgeStyle=orthogonalEdgeStyle;rounded=0;orthogonalLoop=1;jettySize=auto;html=1;entryX=0;entryY=0.5;entryDx=0;entryDy=0;exitX=0.5;exitY=1;exitDx=0;exitDy=0;" parent="1" source="325" target="328" edge="1">
                    <mxGeometry relative="1" as="geometry"/>
                </mxCell>
                <mxCell id="331" style="edgeStyle=orthogonalEdgeStyle;rounded=0;orthogonalLoop=1;jettySize=auto;html=1;exitX=0.5;exitY=1;exitDx=0;exitDy=0;entryX=0;entryY=0.25;entryDx=0;entryDy=0;" parent="1" source="325" target="132" edge="1">
                    <mxGeometry relative="1" as="geometry"/>
                </mxCell>
                <mxCell id="325" value="数学&lt;br&gt;建模" style="ellipse;whiteSpace=wrap;html=1;aspect=fixed;rounded=1;shadow=1;glass=0;strokeColor=#007FFF;fillColor=none;gradientColor=none;fontSize=20;" parent="1" vertex="1">
                    <mxGeometry x="-540" y="320" width="80" height="80" as="geometry"/>
                </mxCell>
                <mxCell id="328" value="Lingo" style="whiteSpace=wrap;html=1;rounded=1;fontSize=20;strokeColor=#007FFF;" parent="1" vertex="1">
                    <mxGeometry x="-440" y="440" width="80" height="60" as="geometry"/>
                </mxCell>
                <mxCell id="332" value="Fortran" style="rounded=1;whiteSpace=wrap;html=1;fontSize=20;fillColor=#0050ef;fontColor=#ffffff;strokeColor=#001DBC;" vertex="1" parent="1">
                    <mxGeometry x="-520" y="960" width="80" height="40" as="geometry"/>
                </mxCell>
                <mxCell id="334" value="Maven" style="rounded=1;whiteSpace=wrap;html=1;gradientColor=none;fontSize=20;" vertex="1" parent="1">
                    <mxGeometry x="-280" y="1040" width="80" height="40" as="geometry"/>
                </mxCell>
                <mxCell id="338" style="edgeStyle=orthogonalEdgeStyle;rounded=0;html=1;elbow=vertical;" edge="1" parent="1">
                    <mxGeometry relative="1" as="geometry">
                        <mxPoint x="-240" y="960" as="sourcePoint"/>
                        <mxPoint x="-240" y="1000" as="targetPoint"/>
                    </mxGeometry>
                </mxCell>
                <mxCell id="339" style="edgeStyle=orthogonalEdgeStyle;rounded=0;html=1;elbow=vertical;" edge="1" parent="1" source="335" target="334">
                    <mxGeometry relative="1" as="geometry"/>
                </mxCell>
                <mxCell id="335" value="Java" style="rounded=1;whiteSpace=wrap;html=1;fontSize=20;fillColor=#0050ef;strokeColor=#001DBC;fontColor=#ffffff;" vertex="1" parent="1">
                    <mxGeometry x="-280" y="960" width="80" height="40" as="geometry"/>
                </mxCell>
            </root>
        </mxGraphModel>
    </diagram>
</mxfile>